<svg width="15" height="15" viewBox="0 0 15 15" fill="none" xmlns="http://www.w3.org/2000/svg">
<g clip-path="url(#clip0_4007_1417)">
<path d="M6.81611 15H0.281399C0.125066 15 0 14.858 0 14.6805V7.26185C0 7.08437 0.125066 6.94238 0.281399 6.94238H6.81611C6.97245 6.94238 7.09751 7.08437 7.09751 7.26185V14.6805C7.09751 14.858 6.97245 15 6.81611 15Z" fill="#0CBA58"/>
<path d="M3.97093 13.4737V11.3794L5.78439 11.3439C5.81565 11.3439 5.84692 11.3439 5.87819 11.3084C5.90945 11.2729 5.90945 11.2374 5.90945 11.2019V10.5985C5.90945 10.563 5.90945 10.5275 5.87819 10.492C5.84692 10.4565 5.81565 10.4565 5.78439 10.4565L3.97093 10.492L3.93966 8.43324C3.93966 8.39775 3.93966 8.36225 3.90839 8.32676C3.87713 8.29126 3.84586 8.29126 3.81459 8.29126H3.28306C3.22053 8.29126 3.15799 8.36225 3.15799 8.43324L3.18926 10.492L1.3758 10.5275C1.34453 10.5275 1.31327 10.5275 1.282 10.563C1.25073 10.5985 1.25073 10.634 1.25073 10.6695V11.2729C1.25073 11.3084 1.25073 11.3439 1.282 11.3794C1.31327 11.4149 1.34453 11.4149 1.3758 11.4149L3.18926 11.3794L3.22053 13.4382C3.22053 13.4737 3.22053 13.5092 3.25179 13.5447C3.28306 13.5802 3.31433 13.5802 3.34559 13.5802H3.87713C3.90839 13.5802 3.93966 13.5802 3.97093 13.5447C3.97093 13.5447 3.97093 13.5092 3.97093 13.4737Z" fill="white"/>
<path d="M10.5993 10.634C10.3805 10.634 10.1303 10.634 9.91147 10.634C9.6926 10.634 9.47373 10.421 9.47373 10.1725C9.47373 9.46258 9.47373 8.75266 9.5988 8.07823C9.75513 7.22632 10.1929 6.5519 10.8182 6.05495C11.0996 5.84197 11.4123 5.629 11.6624 5.34503C11.8813 5.13205 12.0689 4.91907 12.1939 4.6351C12.6629 3.57022 12.1001 2.29236 10.8495 2.32785C10.1303 2.32785 9.53627 2.8603 9.37993 3.64121C9.3174 3.88968 9.16107 4.03167 8.9422 4.03167C8.41067 4.03167 7.87914 4.03167 7.37887 4.03167C7.09747 4.03167 6.90987 3.7832 6.94114 3.46373C7.12874 1.9374 7.87914 0.872512 9.16107 0.375566C10.5681 -0.192373 11.9751 -0.12138 13.3195 0.624039C14.2263 1.12098 14.7891 1.97289 14.9454 3.10877C15.1643 4.6351 14.7265 5.87747 13.6009 6.80037C13.3195 7.04884 12.9756 7.22632 12.6942 7.4748C12.0689 7.97174 11.7875 8.68166 11.7562 9.53357C11.7562 9.74655 11.7562 9.92403 11.7562 10.137C11.7562 10.4565 11.5686 10.6694 11.2872 10.6694C11.0683 10.634 10.8495 10.634 10.5993 10.634Z" fill="#4259C3"/>
<path d="M10.6619 15C9.84896 15 9.22363 14.2901 9.22363 13.3672C9.22363 12.4798 9.84896 11.7343 10.6619 11.7343C11.4436 11.7343 12.1314 12.4798 12.1002 13.3672C12.1002 14.2546 11.4436 15 10.6619 15Z" fill="#4259C3"/>
</g>
<defs>
<clipPath id="clip0_4007_1417">
<rect width="15" height="15" fill="white"/>
</clipPath>
</defs>
</svg>
