<?xml version="1.0" encoding="utf-8"?>
<!-- Generator: Adobe Illustrator 26.0.1, SVG Export Plug-In . SVG Version: 6.00 Build 0)  -->
<svg version="1.1" id="Layer_1" xmlns="http://www.w3.org/2000/svg" xmlns:xlink="http://www.w3.org/1999/xlink" x="0px" y="0px"
	 viewBox="0 0 48 48" style="enable-background:new 0 0 48 48;" xml:space="preserve">
<style type="text/css">
	.st0{fill:none;}
	.st1{fill:#4259C3;}
	.st2{fill:#0CBA58;}
	.st3{fill:#FFFFFF;}
</style>
<rect class="st0" width="48" height="48"/>
<g id="Analysis_Question">
	<g>
		<path class="st1" d="M33.9,32.9c-0.7,0-1.5,0-2.2,0c-0.7,0-1.4-0.6-1.4-1.3c0-2,0-4,0.4-5.9c0.5-2.4,1.9-4.3,3.9-5.7
			c0.9-0.6,1.9-1.2,2.7-2c0.7-0.6,1.3-1.2,1.7-2c1.5-3-0.3-6.6-4.3-6.5c-2.3,0-4.2,1.5-4.7,3.7c-0.2,0.7-0.7,1.1-1.4,1.1
			c-1.7,0-3.4,0-5,0c-0.9,0-1.5-0.7-1.4-1.6c0.6-4.3,3-7.3,7.1-8.7c4.5-1.6,9-1.4,13.3,0.7c2.9,1.4,4.7,3.8,5.2,7
			c0.7,4.3-0.7,7.8-4.3,10.4c-0.9,0.7-2,1.2-2.9,1.9c-2,1.4-2.9,3.4-3,5.8c0,0.6,0,1.1,0,1.7c0,0.9-0.6,1.5-1.5,1.5c0,0,0,0,0,0
			C35.4,32.9,34.7,32.9,33.9,32.9z"/>
		<path class="st1" d="M34.1,45.2c-2.6,0-4.6-2-4.6-4.6c0-2.5,2-4.6,4.6-4.6c2.5,0,4.7,2.1,4.6,4.6C38.7,43.1,36.6,45.2,34.1,45.2z"
			/>
	</g>
	<g>
		<path class="st2" d="M22,45.2H0.7c-0.4,0-0.7-0.3-0.7-0.7V23.2c0-0.4,0.3-0.7,0.7-0.7H22c0.4,0,0.7,0.3,0.7,0.7v21.3
			C22.8,44.8,22.4,45.2,22,45.2z"/>
		<g>
			<path class="st3" d="M9.4,38.9l-4.8-4.8c-0.1-0.1-0.1-0.2,0-0.3L6,32.4c0.1-0.1,0.2-0.1,0.3,0l3,3c0.1,0.1,0.2,0.1,0.3,0l6.8-6.8
				c0.1-0.1,0.2-0.1,0.3,0l1.4,1.4c0.1,0.1,0.1,0.2,0,0.3l-8.5,8.5C9.6,39,9.4,39,9.4,38.9z"/>
		</g>
	</g>
</g>
</svg>
