<?xml version="1.0" encoding="utf-8"?>
<!-- Generator: Adobe Illustrator 26.0.1, SVG Export Plug-In . SVG Version: 6.00 Build 0)  -->
<svg version="1.1" id="Layer_1" xmlns="http://www.w3.org/2000/svg" xmlns:xlink="http://www.w3.org/1999/xlink" x="0px" y="0px"
	 viewBox="0 0 48 48" style="enable-background:new 0 0 48 48;" xml:space="preserve">
<style type="text/css">
	.st0{fill:none;}
	.st1{fill:#4259C3;}
</style>
<rect class="st0" width="48" height="48"/>
<g id="Analysis">
	<g>
		<path class="st1" d="M8.4,48H2c-0.9,0-1.7-0.8-1.7-1.7V30.9c0-0.9,0.8-1.7,1.7-1.7h6.3c0.9,0,1.7,0.8,1.7,1.7v15.4
			C10.1,47.2,9.3,48,8.4,48z"/>
		<path class="st1" d="M20.9,48h-6.3c-0.9,0-1.7-0.8-1.7-1.7V22.2c0-0.9,0.8-1.7,1.7-1.7h6.3c0.9,0,1.7,0.8,1.7,1.7v24.1
			C22.6,47.2,21.8,48,20.9,48z"/>
		<path class="st1" d="M33.4,48h-6.3c-0.9,0-1.7-0.8-1.7-1.7V12.1c0-0.9,0.8-1.7,1.7-1.7h6.3c0.9,0,1.7,0.8,1.7,1.7v34.2
			C35.1,47.2,34.4,48,33.4,48z"/>
		<path class="st1" d="M46,48h-6.3c-0.9,0-1.7-0.8-1.7-1.7V1.7c0-0.9,0.8-1.7,1.7-1.7H46c0.9,0,1.7,0.8,1.7,1.7v44.6
			C47.7,47.2,46.9,48,46,48z"/>
	</g>
</g>
</svg>
