<?xml version="1.0" encoding="utf-8"?>
<!-- Generator: Adobe Illustrator 26.0.1, SVG Export Plug-In . SVG Version: 6.00 Build 0)  -->
<svg version="1.1" id="Layer_1" xmlns="http://www.w3.org/2000/svg" xmlns:xlink="http://www.w3.org/1999/xlink" x="0px" y="0px"
	 viewBox="0 0 48 48" style="enable-background:new 0 0 48 48;" xml:space="preserve">
<style type="text/css">
	.st0{fill:none;}
	.st1{fill:#4259C3;}
	.st2{fill:#0CBA58;}
	.st3{fill:#D9D9D9;}
</style>
<rect class="st0" width="48" height="48"/>
<g id="Apply_selection_as_feedback_V2_00000076564166537195763640000003287548172184461723_">
	<g>
		<g>
			<polygon class="st1" points="20.4,26.2 17.7,26.2 17.7,25.2 19.4,25.2 19.4,23.6 20.4,23.6 			"/>
		</g>
		<g>
			<rect x="7.7" y="25.2" class="st1" width="5" height="1"/>
		</g>
		<g>
			<polygon class="st1" points="2.6,26.2 0,26.2 0,23.6 1,23.6 1,25.2 2.6,25.2 			"/>
		</g>
		<g>
			<rect x="0" y="13.5" class="st1" width="1" height="5"/>
		</g>
		<g>
			<polygon class="st1" points="1,8.5 0,8.5 0,5.8 2.6,5.8 2.6,6.8 1,6.8 			"/>
		</g>
		<g>
			<rect x="7.7" y="5.8" class="st1" width="5" height="1"/>
		</g>
		<g>
			<polygon class="st1" points="20.4,8.5 19.4,8.5 19.4,6.8 17.7,6.8 17.7,5.8 20.4,5.8 			"/>
		</g>
		<g>
			<rect x="19.4" y="13.5" class="st1" width="1" height="5"/>
		</g>
	</g>
	<g>
		<g>
			<polygon class="st2" points="9.3,18.8 5.7,15.8 6.8,14.4 9.1,16.4 13.3,11.3 14.7,12.4 			"/>
		</g>
	</g>
	<g>
		<path class="st3" d="M26.2,22.1c0.3,2.1,2,4.7,4.7,5.6c1.1,0.4,2.3,0.4,3.5,0c2.7-0.9,4.4-3.5,4.7-5.6c0.4,0,0.8-0.5,1.3-2.3
			c0.7-2.4,0-2.7-0.7-2.7c0.1-0.3,0.2-0.7,0.3-1C41.2,10,38,9.8,38,9.8s-0.5-1-1.9-1.7c-0.9-0.5-2.2-0.9-3.9-0.8
			c-0.5,0-1.1,0.1-1.6,0.3c-0.6,0.2-1.2,0.5-1.7,0.8c-0.6,0.4-1.2,0.9-1.8,1.4c-0.8,0.8-1.6,1.9-1.9,3.2c-0.3,1-0.2,2,0,3.1
			c0.1,0.3,0.1,0.7,0.3,1c-0.6-0.1-1.4,0.3-0.7,2.7C25.4,21.6,25.9,22.1,26.2,22.1L26.2,22.1z"/>
		<path class="st1" d="M45.1,30.2c-3.8-0.9-7-3-7-3l-2.4,7.4l-0.5,1.4l0,0l-0.4,1.2l-1.3-3.5c3.2-4.2-0.6-4.2-0.9-4.2
			c-0.2,0-4,0-0.9,4.2l-1.3,3.5l-0.4-1.2l0,0l-0.5-1.4l-2.4-7.4c0,0-3.1,2.1-7,3c-2.9,0.7-3,3.9-2.9,5.4c0,0,0.2,2.1,0.3,3.1
			c0,0,5.6,3.5,15,3.5c9.4,0,15-3.5,15-3.5c0.2-0.9,0.3-3.1,0.3-3.1C48.1,34,48,30.9,45.1,30.2L45.1,30.2z"/>
	</g>
</g>
</svg>
