<?xml version="1.0" encoding="utf-8"?>
<!-- Generator: Adobe Illustrator 26.0.1, SVG Export Plug-In . SVG Version: 6.00 Build 0)  -->
<svg version="1.1" id="Layer_1" xmlns="http://www.w3.org/2000/svg" xmlns:xlink="http://www.w3.org/1999/xlink" x="0px" y="0px"
	 viewBox="0 0 48 48" style="enable-background:new 0 0 48 48;" xml:space="preserve">
<style type="text/css">
	.st0{fill:none;}
	.st1{fill:#4259C3;}
	.st2{fill:#FFFFFF;}
	.st3{fill:#FF1D25;}
</style>
<rect class="st0" width="48" height="48"/>
<g id="Compensator_and_Error">
	<g id="Selection_00000125566565739029162280000004553952206219056774_">
		<path class="st1" d="M37.7,38.5h-36c-0.7,0-1.2-0.6-1.2-1.2v-36C0.5,0.6,1,0,1.7,0h36C38.4,0,39,0.6,39,1.2v36
			C39,37.9,38.4,38.5,37.7,38.5z"/>
		<g>
			<path class="st2" d="M16.3,27.9l-8.1-8.1c-0.1-0.1-0.1-0.4,0-0.5l2.4-2.4c0.1-0.1,0.4-0.1,0.5,0l5.1,5.1c0.1,0.1,0.4,0.1,0.5,0
				l11.5-11.4c0.1-0.1,0.4-0.1,0.5,0l2.4,2.4c0.1,0.1,0.1,0.4,0,0.5L16.8,27.9C16.7,28.1,16.4,28.1,16.3,27.9z"/>
		</g>
	</g>
	<g>
		<path class="st3" d="M32.4,23.3L19,46.6C18.6,47.2,19,48,19.8,48h26.8c0.7,0,1.2-0.8,0.8-1.4L33.9,23.3
			C33.7,22.7,32.8,22.7,32.4,23.3z"/>
		<g>
			<g>
				<path class="st2" d="M31.9,29.7h2.6c0.4,0,0.8,0.4,0.8,0.8L34,40.8c0,0.4-0.4,0.8-0.8,0.8l0,0c-0.4,0-0.8-0.4-0.8-0.8l-1.3-10.3
					C31.2,30.1,31.5,29.7,31.9,29.7z"/>
				<circle class="st2" cx="33.2" cy="44.3" r="1.3"/>
			</g>
		</g>
	</g>
</g>
</svg>
