<?xml version="1.0" encoding="utf-8"?>
<!-- Generator: Adobe Illustrator 26.0.1, SVG Export Plug-In . SVG Version: 6.00 Build 0)  -->
<svg version="1.1" id="Layer_1" xmlns="http://www.w3.org/2000/svg" xmlns:xlink="http://www.w3.org/1999/xlink" x="0px" y="0px"
	 viewBox="0 0 48 48" style="enable-background:new 0 0 48 48;" xml:space="preserve">
<style type="text/css">
	.st0{fill:none;}
	.st1{fill:#0CBA58;}
	.st2{fill:#4259C3;}
	.st3{fill:#FFFFFF;}
</style>
<rect class="st0" width="48" height="48"/>
<g id="Entity_Under_Analysis">
	<path class="st1" d="M34.2,36.3H1.1c-0.6,0-1.1-0.5-1.1-1.1V2.1c0-0.6,0.5-1.1,1.1-1.1h33.1c0.6,0,1.1,0.5,1.1,1.1v33.1
		C35.3,35.7,34.8,36.3,34.2,36.3z"/>
	<g id="Selection_00000005978599559456965650000008488288268291285677_">
		<path class="st2" d="M46.9,47.1H13.8c-0.6,0-1.1-0.5-1.1-1.1V12.9c0-0.6,0.5-1.1,1.1-1.1h33.1c0.6,0,1.1,0.5,1.1,1.1v33.1
			C48,46.6,47.5,47.1,46.9,47.1z"/>
		<g>
			<path class="st3" d="M27.2,37.4L19.8,30c-0.1-0.1-0.1-0.3,0-0.5l2.2-2.2c0.1-0.1,0.3-0.1,0.5,0l4.7,4.7c0.1,0.1,0.3,0.1,0.5,0
				l10.5-10.5c0.1-0.1,0.3-0.1,0.5,0l2.2,2.2c0.1,0.1,0.1,0.3,0,0.5L27.7,37.3C27.5,37.5,27.3,37.5,27.2,37.4z"/>
		</g>
	</g>
</g>
</svg>
