<svg width="15" height="15" viewBox="0 0 15 15" fill="none" xmlns="http://www.w3.org/2000/svg">
<path d="M9.12811 9.99057H0.293594C0.133452 9.99057 0 9.84906 0 9.67925V0.311321C0 0.141509 0.133452 0 0.293594 0H9.12811C9.28826 0 9.42171 0.141509 9.42171 0.311321V9.67925C9.42171 9.82076 9.28826 9.99057 9.12811 9.99057Z" fill="#0CBA58"/>
<path d="M12.5178 13.0472H3.68324C3.5231 13.0472 3.38965 12.9057 3.38965 12.7359V3.36793C3.38965 3.19812 3.5231 3.05661 3.68324 3.05661H12.5178C12.6779 3.05661 12.8114 3.19812 12.8114 3.36793V12.7359C12.8114 12.9057 12.6779 13.0472 12.5178 13.0472Z" fill="#4259C3"/>
<path d="M7.25976 10.3019L5.28467 8.20753C5.25798 8.17922 5.25798 8.12262 5.28467 8.06602L5.87186 7.44338C5.89855 7.41507 5.95193 7.41507 6.00531 7.44338L7.25976 8.77356C7.28645 8.80187 7.33983 8.80187 7.39321 8.77356L10.1957 5.80187C10.2224 5.77356 10.2758 5.77356 10.3292 5.80187L10.9163 6.42451C10.943 6.45281 10.943 6.50941 10.9163 6.56602L7.39321 10.2736C7.33983 10.3302 7.28645 10.3302 7.25976 10.3019Z" fill="white"/>
<path d="M12.4378 15C11.0232 15 9.87549 13.8642 9.87549 12.4642C9.87549 11.0642 11.0232 9.92831 12.4378 9.92831C13.8524 9.92831 15 11.0642 15 12.4642C15 13.8642 13.8524 15 12.4378 15Z" fill="#FF0000"/>
<path d="M13.8524 13.4152L12.8648 12.4643L13.8257 11.4869C13.8524 11.4605 13.8524 11.4341 13.8524 11.4077C13.8524 11.3812 13.8524 11.3548 13.8257 11.3284L13.5321 11.0643C13.5054 11.0378 13.4787 11.0378 13.452 11.0378C13.4253 11.0378 13.3986 11.0378 13.3719 11.0643L12.4111 12.0416L11.4502 11.1171C11.4235 11.0907 11.3969 11.0907 11.3702 11.0907C11.3435 11.0907 11.3168 11.0907 11.2901 11.1171L11.0232 11.4077C10.9965 11.4341 10.9965 11.5133 11.0232 11.5397L12.0107 12.4907L11.0499 13.468C11.0232 13.4944 11.0232 13.5209 11.0232 13.5473C11.0232 13.5737 11.0232 13.6001 11.0499 13.6265L11.3435 13.8907C11.3702 13.9171 11.3969 13.9171 11.4235 13.9171C11.4502 13.9171 11.4769 13.9171 11.5036 13.8907L12.4645 12.9133L13.452 13.8643C13.4787 13.8907 13.5054 13.8907 13.5321 13.8907C13.5588 13.8907 13.5855 13.8907 13.6122 13.8643L13.8791 13.5737C13.9058 13.5473 13.9058 13.5209 13.9058 13.4944C13.8791 13.4416 13.8791 13.4152 13.8524 13.4152Z" fill="white"/>
</svg>
