<svg width="15" height="15" viewBox="0 0 15 15" fill="none" xmlns="http://www.w3.org/2000/svg">
<path d="M1.89666 2.89999V12.7667C1.89666 12.7667 1.89666 12.7667 1.89666 12.8C1.89666 12.8667 1.83919 12.9333 1.81045 12.9667C1.78172 12.9667 1.78172 12.9667 1.75298 12.9667C1.72424 12.9667 1.72424 12.9667 1.69551 12.9667C1.66677 12.9333 1.63804 12.9 1.6093 12.8667C1.6093 12.8333 1.58057 12.8 1.58057 12.7667V2.89999C1.58057 2.89999 1.58057 2.89999 1.58057 2.86666C1.58057 2.76666 1.63804 2.66666 1.75298 2.66666C1.81045 2.66666 1.89666 2.76666 1.89666 2.89999Z" fill="#C7C7C7"/>
<path d="M4.77012 2.89999V12.7667C4.77012 12.8667 4.68391 12.9667 4.59771 12.9667C4.5115 12.9667 4.42529 12.8667 4.42529 12.7667V2.89999C4.42529 2.89999 4.42529 2.89999 4.42529 2.86666C4.42529 2.76666 4.5115 2.66666 4.59771 2.66666C4.71265 2.66666 4.77012 2.76666 4.77012 2.89999Z" fill="#C7C7C7"/>
<path d="M7.50005 12.9667C7.41384 12.9667 7.32764 12.8667 7.32764 12.7667V2.86666C7.32764 2.76666 7.41384 2.66666 7.50005 2.66666C7.58626 2.66666 7.67246 2.76666 7.67246 2.86666V12.7667C7.67246 12.8667 7.58626 12.9667 7.50005 12.9667Z" fill="#C7C7C7"/>
<path d="M10.3736 2.66666C10.2874 2.66666 10.2012 2.76666 10.2012 2.86666V10.5333V10.9667V12.7667C10.2012 12.8667 10.2874 12.9667 10.3736 12.9667C10.4598 12.9667 10.546 12.8667 10.546 12.7667V10.9667V10.5333V2.86666C10.546 2.76666 10.4598 2.66666 10.3736 2.66666Z" fill="#C7C7C7"/>
<path d="M13.4196 9.93332V9.39999V8.99999V5.63332V5.23332V2.86666C13.4196 2.76666 13.3334 2.66666 13.2472 2.66666C13.161 2.66666 13.0747 2.76666 13.0747 2.86666V5.23332H1.69544C1.63796 5.23332 1.58049 5.26666 1.55176 5.36666C1.55176 5.39999 1.55176 5.39999 1.55176 5.43332C1.55176 5.46666 1.55176 5.46666 1.55176 5.49999C1.58049 5.56666 1.63796 5.59999 1.69544 5.59999H13.1035V8.96666H1.69544C1.63796 8.96666 1.58049 9.03332 1.55176 9.09999V9.13332V9.16666C1.55176 9.23332 1.60923 9.29999 1.69544 9.29999H13.1035V9.79999V12.7C13.1035 12.8 13.1897 12.9 13.2759 12.9C13.3334 12.9 13.3908 12.8667 13.4196 12.8C13.4196 12.7667 13.4483 12.7333 13.4483 12.7L13.4196 9.93332Z" fill="#C7C7C7"/>
<path d="M13.4196 12.9667C13.4196 13.0667 13.3622 13.1667 13.276 13.1667H1.69551C1.66677 13.1667 1.6093 13.1334 1.6093 13.1C1.58057 13.0667 1.58057 13.0667 1.58057 13.0334C1.58057 13 1.58057 13 1.58057 12.9667C1.58057 12.9334 1.58057 12.9 1.6093 12.8667C1.63804 12.8 1.66677 12.7667 1.72424 12.7667H13.3334C13.3909 12.7667 13.4196 12.8 13.4484 12.8667C13.4196 12.9 13.4196 12.9334 13.4196 12.9667Z" fill="#C7C7C7"/>
<path d="M13.7932 0.3V2.56667C13.7932 2.73333 13.707 2.86667 13.592 2.86667H1.37937C1.26443 2.86667 1.17822 2.73333 1.17822 2.56667V0.3C1.17822 0.133333 1.26443 0 1.37937 0H13.592C13.707 0 13.7932 0.133333 13.7932 0.3Z" fill="#C7C7C7"/>
<path d="M5.51724 14.5333H0.172414C0.0862069 14.5333 0 14.4334 0 14.3334V8.13335C0 8.03335 0.0862069 7.93335 0.172414 7.93335H5.48851C5.57471 7.93335 5.66092 8.03335 5.66092 8.13335V14.3C5.68966 14.4333 5.60345 14.5333 5.51724 14.5333Z" fill="#C7C7C7"/>
<path d="M2.32764 12.7L1.14948 11.3334C1.12075 11.3 1.12075 11.2667 1.14948 11.2334L1.52304 10.8C1.55178 10.7667 1.58052 10.7667 1.60925 10.8L2.35638 11.6667C2.38511 11.7 2.41385 11.7 2.44258 11.6667L4.13799 9.70005C4.16672 9.66672 4.19546 9.66672 4.22419 9.70005L4.59776 10.1334C4.62649 10.1667 4.62649 10.2 4.59776 10.2334L2.47132 12.7C2.38511 12.7334 2.35638 12.7334 2.32764 12.7Z" fill="white"/>
<path d="M12.2413 15C10.7183 15 9.48267 13.5667 9.48267 11.8C9.48267 10.0333 10.7183 8.60001 12.2413 8.60001C13.7643 8.60001 14.9999 10.0333 14.9999 11.8C14.9999 13.5667 13.7643 15 12.2413 15Z" fill="#C7C7C7"/>
<path d="M13.7643 12.9999L12.7011 11.7999L13.7356 10.5666C13.7643 10.5332 13.7643 10.4999 13.7643 10.4666C13.7643 10.4332 13.7643 10.3999 13.7356 10.3666L13.4195 10.0332C13.3907 9.99991 13.362 9.99991 13.3333 9.99991C13.3045 9.99991 13.2758 9.99991 13.2471 10.0332L12.2126 11.2666L11.1781 10.0999C11.1494 10.0666 11.1206 10.0666 11.0919 10.0666C11.0632 10.0666 11.0344 10.0666 11.0057 10.0999L10.7183 10.4666C10.6896 10.4999 10.6896 10.5999 10.7183 10.6332L11.7815 11.8332L10.7471 13.0666C10.7183 13.0999 10.7183 13.1332 10.7183 13.1666C10.7183 13.1999 10.7183 13.2332 10.7471 13.2666L11.0632 13.5999C11.0919 13.6332 11.1206 13.6332 11.1494 13.6332C11.1781 13.6332 11.2068 13.6332 11.2356 13.5999L12.2701 12.3666L13.3333 13.5666C13.362 13.5999 13.3907 13.5999 13.4195 13.5999C13.4482 13.5999 13.4769 13.5999 13.5057 13.5666L13.793 13.1999C13.8218 13.1666 13.8218 13.1332 13.8218 13.0999C13.793 13.0332 13.793 12.9999 13.7643 12.9999Z" fill="white"/>
</svg>
