<svg width="15" height="15" viewBox="0 0 15 15" fill="none" xmlns="http://www.w3.org/2000/svg">
<path d="M10.6197 14.9091H0.438426C0.194856 14.9091 0 14.6464 0 14.318V0.591109C0 0.262715 0.194856 0 0.438426 0H10.6197C10.8632 0 11.0581 0.262715 11.0581 0.591109V14.318C11.0581 14.6464 10.8632 14.9091 10.6197 14.9091Z" fill="#0CBA58"/>
<path d="M6.18661 12.0849V8.20988L9.01202 8.1442C9.06073 8.1442 9.10945 8.1442 9.15816 8.07852C9.20688 8.01284 9.20688 7.94716 9.20688 7.88148V6.76494C9.20688 6.69926 9.20688 6.63358 9.15816 6.56791C9.10945 6.50223 9.06073 6.50223 9.01202 6.50223L6.18661 6.56791L6.13789 2.75854C6.13789 2.69286 6.13789 2.62718 6.08918 2.5615C6.04046 2.49582 5.99175 2.49582 5.94304 2.49582H5.1149C5.01747 2.49582 4.92004 2.62718 4.92004 2.75854L4.96876 6.56791L2.14334 6.63358C2.09463 6.63358 2.04591 6.63358 1.9972 6.69926C1.94849 6.76494 1.94849 6.83062 1.94849 6.8963V8.01284C1.94849 8.07852 1.94849 8.1442 1.9972 8.20988C2.04591 8.27556 2.09463 8.27555 2.14334 8.27555L4.96876 8.20988L5.01747 12.0192C5.01747 12.0849 5.01747 12.1506 5.06618 12.2163C5.1149 12.282 5.16361 12.282 5.21233 12.282H6.04046C6.08918 12.282 6.13789 12.282 6.18661 12.2163C6.18661 12.2163 6.18661 12.1506 6.18661 12.0849Z" fill="white"/>
<path d="M10.7704 7.89433L7.14766 14.5099C7.02055 14.7327 7.16885 15 7.42307 15H14.6897C14.9228 15 15.0711 14.7327 14.9651 14.5099L11.3212 7.89433C11.1941 7.67158 10.8975 7.67158 10.7704 7.89433Z" fill="#FF0000"/>
<path d="M10.6855 9.52029H11.427C11.5541 9.52029 11.6389 9.63167 11.6389 9.74304L11.2787 12.8392C11.2787 12.9729 11.1728 13.062 11.0669 13.062C10.9397 13.062 10.855 12.9506 10.855 12.8392L10.4948 9.74304C10.4525 9.60939 10.5584 9.52029 10.6855 9.52029Z" fill="white"/>
<path d="M11.0669 14.2649C11.2658 14.2649 11.4271 14.0954 11.4271 13.8862C11.4271 13.6771 11.2658 13.5076 11.0669 13.5076C10.868 13.5076 10.7068 13.6771 10.7068 13.8862C10.7068 14.0954 10.868 14.2649 11.0669 14.2649Z" fill="white"/>
</svg>
