<svg width="15" height="15" viewBox="0 0 15 15" fill="none" xmlns="http://www.w3.org/2000/svg">
<path d="M5.41 0.271411L0.0683327 11.0193C-0.119094 11.3812 0.0995705 11.8154 0.474424 11.8154H11.189C11.5326 11.8154 11.7513 11.3812 11.5951 11.0193L6.22218 0.271411C6.03475 -0.0904704 5.59742 -0.0904704 5.41 0.271411Z" fill="#FF0000"/>
<path d="M5.28512 2.91318H6.37844C6.56587 2.91318 6.69082 3.09412 6.69082 3.27506L6.15978 8.30522C6.15978 8.52235 6.00359 8.6671 5.8474 8.6671C5.65998 8.6671 5.53502 8.48616 5.53502 8.30522L5.00398 3.27506C4.94151 3.05793 5.09769 2.91318 5.28512 2.91318Z" fill="white"/>
<path d="M5.8472 10.6213C6.14049 10.6213 6.37825 10.3459 6.37825 10.0061C6.37825 9.66633 6.14049 9.3909 5.8472 9.3909C5.55392 9.3909 5.31616 9.66633 5.31616 10.0061C5.31616 10.3459 5.55392 10.6213 5.8472 10.6213Z" fill="white"/>
<path d="M14.75 15H8.78359C8.65864 15 8.53369 14.8914 8.53369 14.7105V7.79854C8.53369 7.65379 8.62741 7.50903 8.78359 7.50903H14.75C14.875 7.50903 14.9999 7.6176 14.9999 7.79854V14.7467C14.9999 14.8914 14.9062 15 14.75 15Z" fill="#0CBA58"/>
<path d="M11.1889 12.9735L9.84569 11.4174C9.81446 11.3812 9.81446 11.345 9.84569 11.3088L10.2518 10.8384C10.283 10.8022 10.3143 10.8022 10.3455 10.8384L11.1889 11.8155C11.2202 11.8516 11.2514 11.8516 11.2826 11.8155L13.1881 9.60798C13.2194 9.57179 13.2506 9.57179 13.2819 9.60798L13.6879 10.0784C13.7192 10.1146 13.7192 10.1508 13.6879 10.187L11.2826 12.9373C11.2514 12.9735 11.2202 12.9735 11.1889 12.9735Z" fill="white"/>
</svg>
