<svg width="15" height="15" viewBox="0 0 15 15" fill="none" xmlns="http://www.w3.org/2000/svg">
<path d="M2.0625 2.99311V13.1766C2.0625 13.1766 2.0625 13.1766 2.0625 13.211C2.0625 13.2798 2 13.3486 1.96875 13.383C1.9375 13.383 1.9375 13.383 1.90625 13.383C1.875 13.383 1.875 13.383 1.84375 13.383C1.8125 13.3486 1.78125 13.3142 1.75 13.2798C1.75 13.2454 1.71875 13.211 1.71875 13.1766V2.99311C1.71875 2.99311 1.71875 2.99311 1.71875 2.95871C1.71875 2.8555 1.78125 2.75229 1.90625 2.75229C1.96875 2.75229 2.0625 2.8555 2.0625 2.99311Z" fill="#4259C3"/>
<path d="M5.1875 2.99311V13.1766C5.1875 13.2798 5.09375 13.383 5 13.383C4.90625 13.383 4.8125 13.2798 4.8125 13.1766V2.99311C4.8125 2.99311 4.8125 2.99311 4.8125 2.95871C4.8125 2.8555 4.90625 2.75229 5 2.75229C5.125 2.75229 5.1875 2.8555 5.1875 2.99311Z" fill="#4259C3"/>
<path d="M8.15625 13.383C8.0625 13.383 7.96875 13.2798 7.96875 13.1766V2.95871C7.96875 2.8555 8.0625 2.75229 8.15625 2.75229C8.25 2.75229 8.34375 2.8555 8.34375 2.95871V13.1766C8.34375 13.2798 8.25 13.383 8.15625 13.383Z" fill="#4259C3"/>
<path d="M11.2812 2.75229C11.1875 2.75229 11.0938 2.8555 11.0938 2.95871V10.8715V11.3188V13.1766C11.0938 13.2798 11.1875 13.383 11.2812 13.383C11.375 13.383 11.4688 13.2798 11.4688 13.1766V11.3188V10.8715V2.95871C11.4688 2.8555 11.375 2.75229 11.2812 2.75229Z" fill="#4259C3"/>
<path d="M14.5938 10.2523V9.70182V9.28898V5.81421V5.40137V2.95871C14.5938 2.8555 14.5 2.75229 14.4062 2.75229C14.3125 2.75229 14.2188 2.8555 14.2188 2.95871V5.40137H1.84375C1.78125 5.40137 1.71875 5.43577 1.6875 5.53898C1.6875 5.57339 1.6875 5.57339 1.6875 5.60779C1.6875 5.64219 1.6875 5.64219 1.6875 5.6766C1.71875 5.7454 1.78125 5.77981 1.84375 5.77981H14.25V9.25458H1.84375C1.78125 9.25458 1.71875 9.32338 1.6875 9.39219V9.42659V9.461C1.6875 9.5298 1.75 9.59861 1.84375 9.59861H14.25V10.1147V13.1078C14.25 13.211 14.3438 13.3142 14.4375 13.3142C14.5 13.3142 14.5625 13.2798 14.5938 13.211C14.5938 13.1766 14.625 13.1422 14.625 13.1078L14.5938 10.2523Z" fill="#4259C3"/>
<path d="M14.5938 13.383C14.5938 13.4862 14.5312 13.5894 14.4375 13.5894H1.84375C1.8125 13.5894 1.75 13.555 1.75 13.5206C1.71875 13.4862 1.71875 13.4862 1.71875 13.4518C1.71875 13.4174 1.71875 13.4174 1.71875 13.383C1.71875 13.3486 1.71875 13.3142 1.75 13.2798C1.78125 13.211 1.8125 13.1766 1.875 13.1766H14.5C14.5625 13.1766 14.5938 13.211 14.625 13.2798C14.5938 13.3142 14.5938 13.3486 14.5938 13.383Z" fill="#4259C3"/>
<path d="M15 0.309633V2.64908C15 2.8211 14.9062 2.95871 14.7812 2.95871H1.5C1.375 2.95871 1.28125 2.8211 1.28125 2.64908V0.309633C1.28125 0.137614 1.375 0 1.5 0H14.7812C14.9062 0 15 0.137614 15 0.309633Z" fill="#4259C3"/>
<path d="M6 15H0.1875C0.09375 15 0 14.8968 0 14.7936V8.3945C0 8.29129 0.09375 8.18808 0.1875 8.18808H5.96875C6.0625 8.18808 6.15625 8.29129 6.15625 8.3945V14.7592C6.1875 14.8968 6.09375 15 6 15Z" fill="#0CBA58"/>
<path d="M2.53125 13.1079L1.25 11.6974C1.21875 11.663 1.21875 11.6286 1.25 11.5942L1.65625 11.1469C1.6875 11.1125 1.71875 11.1125 1.75 11.1469L2.5625 12.0414C2.59375 12.0758 2.625 12.0758 2.65625 12.0414L4.5 10.0116C4.53125 9.97721 4.5625 9.97721 4.59375 10.0116L5 10.4589C5.03125 10.4933 5.03125 10.5277 5 10.5621L2.6875 13.1079C2.59375 13.1423 2.5625 13.1423 2.53125 13.1079Z" fill="white"/>
</svg>
