<?xml version="1.0" encoding="utf-8"?>
<!-- Generator: Adobe Illustrator 26.0.1, SVG Export Plug-In . SVG Version: 6.00 Build 0)  -->
<svg version="1.1" id="Layer_1" xmlns="http://www.w3.org/2000/svg" xmlns:xlink="http://www.w3.org/1999/xlink" x="0px" y="0px"
	 viewBox="0 0 48 48" style="enable-background:new 0 0 48 48;" xml:space="preserve">
<style type="text/css">
	.st0{fill:none;}
	.st1{fill:#D9D9D9;}
	.st2{fill:#4259C3;}
</style>
<rect class="st0" width="48" height="48"/>
<g id="Provide_feedback_with_selection_V2_00000116952105234571336270000013435122477652249221_">
	<g>
		<g>
			<path class="st1" d="M7.5,33.8c0.2,1.5,1.4,3.3,3.3,4c0.8,0.3,1.7,0.3,2.4,0c1.9-0.7,3.1-2.5,3.3-4c0.3,0,0.6-0.4,1-1.6
				c0.5-1.7,0-1.9-0.5-1.9c0.1-0.2,0.1-0.5,0.2-0.7c0.7-4.3-1.5-4.5-1.5-4.5s-0.4-0.7-1.4-1.2c-0.7-0.4-1.6-0.7-2.8-0.6
				c-0.4,0-0.7,0.1-1.1,0.2c-0.4,0.1-0.8,0.3-1.2,0.6c-0.4,0.3-0.9,0.6-1.2,1c-0.6,0.6-1.1,1.3-1.3,2.3c-0.2,0.7-0.1,1.4,0,2.2
				c0,0.2,0.1,0.5,0.2,0.7c-0.4,0-1,0.2-0.5,1.9C6.9,33.5,7.3,33.8,7.5,33.8L7.5,33.8z"/>
			<path class="st2" d="M20.8,39.5c-2.7-0.7-4.9-2.1-4.9-2.1l-1.7,5.2l-0.3,1v0l-0.3,0.8L12.7,42c2.2-3-0.4-3-0.6-2.9
				c-0.1,0-2.8,0-0.6,2.9l-0.9,2.5l-0.3-0.8v0l-0.3-1l-1.7-5.2c0,0-2.2,1.5-4.9,2.1c-2,0.5-2.1,2.7-2,3.8c0,0,0.1,1.5,0.2,2.2
				c0,0,3.9,2.5,10.6,2.5s10.6-2.5,10.6-2.5c0.1-0.7,0.2-2.2,0.2-2.2C22.9,42.3,22.8,40,20.8,39.5L20.8,39.5z"/>
		</g>
	</g>
	<path class="st2" d="M19.9,18.3H3.3c-0.5,0-0.9-0.4-0.9-0.9V0.9C2.5,0.4,2.9,0,3.3,0h16.6c0.5,0,0.9,0.4,0.9,0.9v16.6
		C20.8,18,20.4,18.3,19.9,18.3z"/>
	<path class="st2" d="M46.6,9l-8.3-4.8c-0.1-0.1-0.2,0-0.2,0.1v2.1c0,0.1-0.1,0.2-0.2,0.2h-8.5c-0.1,0-0.2,0.1-0.2,0.2v4.8
		c0,0.1,0.1,0.2,0.2,0.2h8.5c0.1,0,0.2,0.1,0.2,0.2V14c0,0.1,0.1,0.2,0.2,0.1l8.3-4.8C46.7,9.3,46.7,9.1,46.6,9z"/>
</g>
</svg>
