<?xml version="1.0" encoding="utf-8"?>
<!-- Generator: Adobe Illustrator 26.0.1, SVG Export Plug-In . SVG Version: 6.00 Build 0)  -->
<svg version="1.1" id="Layer_1" xmlns="http://www.w3.org/2000/svg" xmlns:xlink="http://www.w3.org/1999/xlink" x="0px" y="0px"
	 viewBox="0 0 48 48" style="enable-background:new 0 0 48 48;" xml:space="preserve">
<style type="text/css">
	.st0{fill:none;}
	.st1{fill:#0CBA58;}
	.st2{fill:#FFFFFF;}
</style>
<rect class="st0" width="48" height="48"/>
<g id="Question">
	<path class="st1" d="M40.5,48H7.5C3.4,48,0,44.6,0,40.5V7.5C0,3.4,3.4,0,7.5,0h33.1C44.6,0,48,3.4,48,7.5v33.1
		C48,44.6,44.6,48,40.5,48z"/>
	<g>
		<g>
			<g>
				<path class="st2" d="M21.5,31.6c0-1.7,0.2-3.2,0.6-4.4c0.4-1.2,0.9-2.3,1.5-3.2c0.6-0.9,1.2-1.7,1.8-2.5
					c0.6-0.8,1.1-1.6,1.5-2.4c0.4-0.8,0.6-1.7,0.6-2.7v0c0-1.2-0.3-2.2-0.9-2.8c-0.6-0.7-1.5-1-2.6-1c-1.1,0-2,0.4-2.6,1.3
					s-0.9,2-0.9,3.5v0h-4.3v0c0.1-2.8,0.8-4.9,2.2-6.5c1.4-1.5,3.3-2.3,5.7-2.3c2.5,0,4.5,0.7,5.9,2.1c1.4,1.4,2.1,3.3,2.1,5.8v0
					c0,1.1-0.2,2.1-0.4,2.9c-0.3,0.8-0.7,1.6-1.1,2.3c-0.5,0.7-0.9,1.3-1.5,2c-0.5,0.6-1,1.3-1.5,2.1c-0.5,0.7-0.8,1.6-1.1,2.5
					c-0.3,0.9-0.4,2.1-0.4,3.4L21.5,31.6L21.5,31.6z M21.4,37.1L21.4,37.1c0-1.2,1-2.3,2.3-2.3h0c1.2,0,2.3,1,2.3,2.3v0
					c0,1.2-1,2.3-2.3,2.3h0C22.4,39.4,21.4,38.4,21.4,37.1z"/>
			</g>
		</g>
	</g>
</g>
</svg>
