<?xml version="1.0" encoding="utf-8"?>
<!-- Generator: Adobe Illustrator 26.0.1, SVG Export Plug-In . SVG Version: 6.00 Build 0)  -->
<svg version="1.1" id="Layer_1" xmlns="http://www.w3.org/2000/svg" xmlns:xlink="http://www.w3.org/1999/xlink" x="0px" y="0px"
	 viewBox="0 0 48 48" style="enable-background:new 0 0 48 48;" xml:space="preserve">
<style type="text/css">
	.st0{fill:none;}
	.st1{fill:#0CBA58;}
	.st2{fill:#4259C3;}
</style>
<rect class="st0" width="48" height="48"/>
<g id="Retain_Analysis_as_Need">
	<g>
		<g>
			<path class="st1" d="M6.6,40.2H1.4c-0.8,0-1.4-0.6-1.4-1.4V26.2c0-0.8,0.6-1.4,1.4-1.4h5.2c0.8,0,1.4,0.6,1.4,1.4v12.6
				C8,39.6,7.4,40.2,6.6,40.2z"/>
			<path class="st1" d="M16.9,40.2h-5.2c-0.8,0-1.4-0.6-1.4-1.4V19c0-0.8,0.6-1.4,1.4-1.4h5.2c0.8,0,1.4,0.6,1.4,1.4v19.8
				C18.3,39.6,17.6,40.2,16.9,40.2z"/>
			<path class="st1" d="M28.6,10.7V36c-0.2,0.1-0.4,0.4-0.5,0.7c0,0.1,0,0.2,0,0.3v3c-0.2,0.2-0.5,0.3-0.9,0.3H22
				c-0.8,0-1.4-0.6-1.4-1.4V10.7c0-0.8,0.6-1.4,1.4-1.4h5.2C27.9,9.3,28.6,10,28.6,10.7z"/>
			<path class="st1" d="M38.8,2.2V22h-8V2.2c0-0.8,0.6-1.4,1.4-1.4h5.2C38.2,0.8,38.8,1.4,38.8,2.2z"/>
		</g>
	</g>
	<g>
		<path class="st2" d="M44.8,22h-3.4c0,0-0.1,0-0.1,0c0,0,0,0,0,0v7.6c0,0.2,0,0.4,0,0.6c0,0,0,0,0,0H29.6c0,0,0,0,0,0
			c0-0.1,0-0.1,0-0.2v-8c0,0,0,0,0-0.1h-5.6c-0.5,0-0.9,0.3-1,0.8c0,0.1,0,0.2,0,0.4v23c0,0.5,0.4,0.9,0.8,1c0.1,0,0.2,0,0.3,0h23
			c0.5,0,0.9-0.4,1-0.8c0-0.1,0-0.2,0-0.3V25.2C46.9,24.2,45.9,23.1,44.8,22z M42.8,44.2c0,0.1,0,0.2,0,0.3
			c-0.1,0.4-0.5,0.7-0.9,0.7H29.1c-0.1,0-0.2,0-0.3,0c-0.4-0.1-0.7-0.5-0.7-0.9v-7.3c0-0.1,0-0.2,0-0.3c0.1-0.3,0.3-0.5,0.5-0.7
			c0.1,0,0.2-0.1,0.3-0.1c0.1,0,0.1,0,0.2,0h12.8c0.2,0,0.4,0.1,0.6,0.2c0.2,0.2,0.4,0.4,0.4,0.7V44.2z"/>
		<path class="st2" d="M40.1,23.3V29c0,0,0,0.1,0,0.2c0,0.2-0.2,0.4-0.4,0.4h-2.3c0,0-0.1,0-0.1,0c-0.2,0-0.3-0.2-0.3-0.4V29
			c0-1,0-1.9,0-2.9v-3c0-0.2,0.2-0.4,0.4-0.4h2.3c0.1,0,0.1,0,0.2,0c0.2,0,0.3,0.2,0.3,0.3C40.1,23.2,40.1,23.3,40.1,23.3z"/>
	</g>
</g>
</svg>
