<?xml version="1.0" encoding="utf-8"?>
<!-- Generator: Adobe Illustrator 26.0.1, SVG Export Plug-In . SVG Version: 6.00 Build 0)  -->
<svg version="1.1" id="Layer_1" xmlns="http://www.w3.org/2000/svg" xmlns:xlink="http://www.w3.org/1999/xlink" x="0px" y="0px"
	 viewBox="0 0 48 48" style="enable-background:new 0 0 48 48;" xml:space="preserve">
<style type="text/css">
	.st0{fill:none;}
	.st1{fill:#0CBA58;}
	.st2{fill:#FFFFFF;}
</style>
<rect class="st0" width="48" height="48"/>
<g id="Selection">
	<path class="st1" d="M46.5,48H1.5C0.7,48,0,47.3,0,46.5V1.5C0,0.7,0.7,0,1.5,0h44.9C47.3,0,48,0.7,48,1.5v44.9
		C48,47.3,47.3,48,46.5,48z"/>
	<g>
		<path class="st2" d="M19.7,34.8L9.7,24.7c-0.2-0.2-0.2-0.5,0-0.6l3-3c0.2-0.2,0.5-0.2,0.6,0l6.4,6.4c0.2,0.2,0.5,0.2,0.6,0
			l14.3-14.3c0.2-0.2,0.5-0.2,0.6,0l3,3c0.2,0.2,0.2,0.5,0,0.6L20.4,34.8C20.2,35,19.9,35,19.7,34.8z"/>
	</g>
</g>
</svg>
