<svg width="15" height="15" viewBox="0 0 15 15" fill="none" xmlns="http://www.w3.org/2000/svg">
<path d="M9.32727 11.4859H0.3C0.136364 11.4859 0 11.3232 0 11.128V0.357917C0 0.16269 0.136364 0 0.3 0H9.32727C9.49091 0 9.62727 0.16269 9.62727 0.357917V11.128C9.62727 11.2907 9.49091 11.4859 9.32727 11.4859Z" fill="#0CBA58"/>
<path d="M12.7909 15H3.76362C3.59999 15 3.46362 14.8373 3.46362 14.6421V3.87202C3.46362 3.67679 3.59999 3.5141 3.76362 3.5141H12.7909C12.9545 3.5141 13.0909 3.67679 13.0909 3.87202V14.6421C13.0909 14.8373 12.9545 15 12.7909 15Z" fill="#4259C3"/>
<path d="M7.41803 11.8437L5.39985 9.43594C5.37258 9.4034 5.37258 9.33833 5.39985 9.27325L5.99985 8.55742C6.02712 8.52488 6.08167 8.52488 6.13621 8.55742L7.41803 10.0867C7.4453 10.1192 7.49985 10.1192 7.55439 10.0867L10.418 6.67022C10.4453 6.63768 10.4998 6.63768 10.5544 6.67022L11.1544 7.38605C11.1817 7.41859 11.1817 7.48366 11.1544 7.54874L7.55439 11.8112C7.49985 11.8763 7.4453 11.8763 7.41803 11.8437Z" fill="white"/>
<path d="M10.9259 14.8875H10.268C10.1667 14.8875 10.0908 14.7985 10.0908 14.6799V12.8116C10.0908 12.693 10.1667 12.6041 10.268 12.6041H10.9259C11.0271 12.6041 11.103 12.693 11.103 12.8116V14.6799C11.103 14.7985 11.0271 14.8875 10.9259 14.8875Z" fill="#0CBA58"/>
<path d="M12.2291 14.8875H11.5712C11.47 14.8875 11.394 14.7985 11.394 14.6799V11.7441C11.394 11.6255 11.47 11.5365 11.5712 11.5365H12.2291C12.3303 11.5365 12.4062 11.6255 12.4062 11.7441V14.6799C12.4062 14.7985 12.3177 14.8875 12.2291 14.8875Z" fill="#0CBA58"/>
<path d="M13.7094 10.5133V14.2647C13.6841 14.2795 13.6588 14.324 13.6462 14.3685C13.6462 14.3833 13.6462 14.3981 13.6462 14.4129V14.8578C13.6209 14.8874 13.5829 14.9023 13.5323 14.9023H12.8744C12.7732 14.9023 12.6973 14.8133 12.6973 14.6947V10.5133C12.6973 10.3947 12.7732 10.3058 12.8744 10.3058H13.5323C13.6209 10.3058 13.7094 10.4095 13.7094 10.5133Z" fill="#0CBA58"/>
<path d="M15 9.25315V12.189H13.9878V9.25315C13.9878 9.13453 14.0637 9.04556 14.1649 9.04556H14.8228C14.9241 9.04556 15 9.13453 15 9.25315Z" fill="#0CBA58"/>
</svg>
