<svg width="15" height="15" viewBox="0 0 15 15" fill="none" xmlns="http://www.w3.org/2000/svg">
<g clip-path="url(#clip0_8035_1039)">
<path d="M10.625 12.0313H9.25V11.5313H10.0937V10.6562H10.625V12.0313Z" fill="#BDBDBD"/>
<path d="M6.625 11.5312H4V12.0312H6.625V11.5312Z" fill="#BDBDBD"/>
<path d="M1.375 12.0313H0V10.6562H0.5V11.5313H1.375V12.0313Z" fill="#BDBDBD"/>
<path d="M0.5 5.40625H0V8.03125H0.5V5.40625Z" fill="#BDBDBD"/>
<path d="M0.5 2.78125H0V1.4375H1.375V1.9375H0.5V2.78125Z" fill="#BDBDBD"/>
<path d="M6.625 1.4375H4V1.9375H6.625V1.4375Z" fill="#BDBDBD"/>
<path d="M10.625 2.78125H10.0937V1.9375H9.25V1.4375H10.625V2.78125Z" fill="#BDBDBD"/>
<path d="M4.84375 8.1875L2.96875 6.59375L3.53125 5.90625L4.71875 6.90625L6.96875 4.25L7.65625 4.84375L4.84375 8.1875Z" fill="#C7C7C7"/>
<path d="M14.9063 12.7188L13.4063 10.7812C13.375 10.75 13.3437 10.7187 13.3125 10.7187C13.2812 10.7187 13.2188 10.7188 13.1875 10.75L13.125 10.8125L12.3125 9.78125C12.9375 9.21875 13.2813 8.46875 13.3438 7.625C13.4063 6.375 12.75 5.1875 11.625 4.625C11.2188 4.4375 10.8125 4.3125 10.3437 4.28125C10.25 4.28125 10.1563 4.28125 10.0625 4.28125C9.9375 4.28125 9.8125 4.28125 9.71875 4.3125C9.6875 4.3125 9.6875 4.3125 9.65625 4.3125C9.28125 4.375 8.90625 4.5 8.59375 4.6875C8.5 4.75 8.40625 4.8125 8.3125 4.875C8.25 4.90625 8.21875 4.9375 8.15625 5C8.125 5.03125 8.09375 5.0625 8.0625 5.09375C8.0625 5.09375 8.0625 5.09375 8.03125 5.125C7.96875 5.1875 7.90625 5.21875 7.875 5.28125C7.78125 5.375 7.71875 5.4375 7.65625 5.53125C7.25 6.03125 7.03125 6.625 7 7.28125C7 7.40625 7 7.5625 7 7.6875C7 7.71875 7 7.78125 7 7.8125C7.03125 8.125 7.125 8.4375 7.25 8.75C7.25 8.78125 7.28125 8.8125 7.28125 8.84375C7.34375 8.96875 7.40625 9.09375 7.46875 9.1875C7.53125 9.28125 7.5625 9.34375 7.625 9.4375C7.6875 9.5 7.71875 9.5625 7.78125 9.625C7.875 9.71875 7.9375 9.8125 8.03125 9.875C8.0625 9.90625 8.09375 9.90625 8.09375 9.9375C8.21875 10.0625 8.375 10.1562 8.53125 10.25C8.875 10.4375 9.21875 10.5625 9.59375 10.625C9.625 10.625 9.625 10.625 9.65625 10.625C9.75 10.625 9.8125 10.6562 9.90625 10.6562C9.9375 10.6562 9.96875 10.6562 10 10.6562H10.0938C10.1562 10.6562 10.1875 10.6562 10.25 10.6562C10.5625 10.625 10.9062 10.5625 11.1875 10.4688C11.375 10.4062 11.5625 10.3125 11.75 10.1875L12.5625 11.2188L12.5 11.25C12.4688 11.2812 12.4375 11.3125 12.4375 11.3437C12.4375 11.375 12.4375 11.4375 12.4688 11.4688L13.9688 13.4062C14.0625 13.5312 14.2188 13.5938 14.375 13.5938C14.4688 13.5938 14.5938 13.5625 14.6875 13.5C14.7812 13.4062 14.875 13.2812 14.875 13.1562C15 12.9687 14.9688 12.8438 14.9063 12.7188ZM12 9.5C11.9063 9.59375 11.8125 9.65625 11.6875 9.71875C11.5313 9.8125 11.3438 9.90625 11.1563 10C10.9063 10.0938 10.625 10.1562 10.3437 10.1562C10.2812 10.1562 10.1875 10.1562 10.125 10.1562C10.0938 10.1562 10.0938 10.1562 10.0625 10.1562C9.96875 10.1562 9.875 10.125 9.78125 10.125C9.75 10.125 9.75 10.125 9.71875 10.125C9.4375 10.0625 9.1875 9.96875 8.9375 9.84375C8.84375 9.78125 8.75 9.71875 8.65625 9.65625C8.625 9.625 8.59375 9.59375 8.5625 9.5625C8.5 9.5 8.40625 9.4375 8.34375 9.375C8.3125 9.34375 8.25 9.28125 8.21875 9.25C8.1875 9.21875 8.15625 9.1875 8.125 9.15625C7.96875 9 7.875 8.8125 7.78125 8.59375C7.78125 8.5625 7.75 8.53125 7.75 8.5C7.625 8.25 7.5625 7.96875 7.53125 7.6875C7.53125 7.65625 7.53125 7.625 7.53125 7.5625C7.53125 7.4375 7.53125 7.34375 7.53125 7.21875C7.5625 6.5625 7.84375 6 8.21875 5.53125C8.25 5.5 8.28125 5.46875 8.3125 5.4375C8.40625 5.34375 8.5 5.25 8.625 5.1875L8.65625 5.15625C8.71875 5.09375 8.8125 5.0625 8.875 5.03125C9.03125 4.9375 9.15625 4.875 9.3125 4.8125C9.4375 4.78125 9.5625 4.71875 9.71875 4.71875C9.75 4.71875 9.75 4.71875 9.78125 4.71875C9.90625 4.6875 10.0313 4.6875 10.125 4.6875C10.1563 4.6875 10.1875 4.6875 10.2188 4.6875C10.2813 4.6875 10.3125 4.6875 10.375 4.6875C10.625 4.6875 10.875 4.75 11.125 4.84375C11.25 4.875 11.375 4.9375 11.4688 5C11.5 5.03125 11.5312 5.03125 11.5937 5.0625C12.5 5.5625 13.0312 6.5625 12.9688 7.59375C12.875 8.34375 12.5625 9 12 9.5Z" fill="#C7C7C7"/>
</g>
<defs>
<clipPath id="clip0_8035_1039">
<rect width="15" height="15" fill="white"/>
</clipPath>
</defs>
</svg>
